USFL
nRows=227
nColumns=2
inDegrees=yes
endheader
time	tib_ant_r	
3.42641	 63.910143	
3.45968	 63.890084	
3.49294	 63.880443	
3.52621	 63.890927	
3.55948	 63.884812	
3.59274	 63.883850	
3.62601	 63.900879	
3.65927	 63.911323	
3.69254	 63.914183	
3.72581	 63.907586	
3.75907	 63.918457	
3.79234	 63.912220	
3.8256	 63.918754	
3.85887	 63.919402	
3.89214	 63.907120	
3.9254	 63.909416	
3.95867	 63.896846	
3.99194	 63.884610	
4.0252	 63.884885	
4.05847	 63.885427	
4.09173	 63.870377	
4.125	 63.866277	
4.15827	 63.879653	
4.19153	 63.873284	
4.2248	 63.879164	
4.25806	 63.889292	
4.29133	 63.880276	
4.3246	 63.895280	
4.35786	 63.882458	
4.39113	 63.892179	
4.4244	 63.875180	
4.45766	 63.876591	
4.49093	 63.901220	
4.52419	 63.901611	
4.55746	 63.909525	
4.59073	 63.921543	
4.62399	 63.944382	
4.65726	 63.948785	
4.69052	 63.944688	
4.72379	 63.973439	
4.75706	 63.952649	
4.79032	 63.995929	
4.82359	 63.948440	
4.85685	 63.930920	
4.89012	 63.866058	
4.92339	 63.835817	
4.95665	 63.819732	
4.98992	 63.831723	
5.02319	 63.826852	
5.05645	 63.816080	
5.08972	 63.823224	
5.12298	 63.843671	
5.15625	 63.828620	
5.18952	 63.810353	
5.22278	 63.844809	
5.25605	 63.812191	
5.28931	 63.807608	
5.32258	 63.789175	
5.35585	 63.807781	
5.38911	 63.806768	
5.42238	 63.810119	
5.45565	 63.801557	
5.48891	 63.766342	
5.52218	 63.778484	
5.55544	 63.794647	
5.58871	 63.183009	
5.62198	 62.710283	
5.65524	 62.696271	
5.68851	 62.679300	
5.72177	 62.756286	
5.75504	 62.813195	
5.78831	 62.896965	
5.82157	 62.690763	
5.85484	 62.581417	
5.8881	 62.276939	
5.92137	 61.853502	
5.95464	 61.145092	
5.9879	 60.765715	
6.02117	 60.679136	
6.05444	 60.408923	
6.0877	 60.106433	
6.12097	 59.805077	
6.15423	 59.580942	
6.1875	 59.382599	
6.22077	 59.241521	
6.25403	 54.534774	
6.2873	 54.459832	
6.32056	 54.206823	
6.35383	 54.077728	
6.3871	 54.017874	
6.42036	 53.970831	
6.45363	 53.995677	
6.4869	 53.932227	
6.52016	 53.935515	
6.55343	 53.749015	
6.58669	 53.619978	
6.61996	 53.499231	
6.65323	 53.532496	
6.68649	 53.442378	
6.71976	 53.408861	
6.75302	 53.370690	
6.78629	 53.404789	
6.81956	 53.399361	
6.85282	 53.453050	
6.88609	 53.525404	
6.91935	 53.523206	
6.95262	 53.461612	
6.98589	 53.391767	
7.01915	 53.397928	
7.05242	 53.414895	
7.08569	 53.377548	
7.11895	 53.461246	
7.15222	 53.644840	
7.18548	 53.758202	
7.21875	 53.705268	
7.25202	 53.698430	
7.28528	 53.686545	
7.31855	 53.811237	
7.35181	 53.936632	
7.38508	 53.875518	
7.41835	 53.861584	
7.45161	 53.895873	
7.48488	 53.874125	
7.51815	 53.868564	
7.55141	 53.950912	
7.58468	 53.906752	
7.61794	 53.999687	
7.65121	 54.109199	
7.68448	 54.074287	
7.71774	 54.046008	
7.75101	 54.262028	
7.78427	 54.297717	
7.81754	 54.320845	
7.85081	 54.280354	
7.88407	 54.357824	
7.91734	 54.431086	
7.9506	 54.522778	
7.98387	 54.586125	
8.01714	 54.562138	
8.0504	 54.549050	
8.08367	 54.643685	
8.11694	 54.632643	
8.1502	 54.702718	
8.18347	 54.634306	
8.21673	 54.685055	
8.25	 54.632101	
8.28327	 54.566502	
8.31653	 54.519229	
8.3498	 54.565450	
8.38306	 54.529546	
8.41633	 54.482790	
8.4496	 54.508240	
8.48286	 54.431989	
8.51613	 54.412826	
8.5494	 54.409910	
8.58266	 54.447673	
8.61593	 54.450814	
8.64919	 54.397390	
8.68246	 54.381300	
8.71573	 54.354711	
8.74899	 54.383428	
8.78226	 54.357906	
8.81552	 54.427198	
8.84879	 54.509006	
8.88206	 54.525318	
8.91532	 54.472449	
8.94859	 54.450184	
8.98185	 54.454219	
9.01512	 54.477507	
9.04839	 54.513078	
9.08165	 54.466316	
9.11492	 54.391796	
9.14819	 54.417467	
9.18145	 54.542895	
9.21472	 54.433359	
9.24798	 54.478449	
9.28125	 54.467697	
9.31452	 54.513685	
9.34778	 54.444446	
9.38105	 54.596554	
9.41431	 54.500392	
9.44758	 54.611719	
9.48085	 54.433371	
9.51411	 54.392006	
9.54738	 54.316600	
9.58065	 54.331836	
9.61391	 54.324370	
9.64718	 54.369910	
9.68044	 54.459582	
9.71371	 54.562209	
9.74698	 54.802622	
9.78024	 55.176703	
9.81351	 55.510947	
9.84677	 56.040575	
9.88004	 56.611216	
9.91331	 57.264496	
9.94657	 57.889757	
9.97984	 58.246602	
10.0131	 58.275948	
10.0464	 58.352494	
10.0796	 58.431930	
10.1129	 58.480925	
10.1462	 58.463103	
10.1794	 58.549685	
10.2127	 58.601251	
10.246	 58.666367	
10.2792	 58.876745	
10.3125	 59.138309	
10.3458	 59.586283	
10.379	 60.075877	
10.4123	 60.680180	
10.4456	 61.163282	
10.4788	 61.588422	
10.5121	 61.942353	
10.5454	 62.352023	
10.5786	 62.587288	
10.6119	 62.636585	
10.6452	 63.193221	
10.6784	 63.318487	
10.7117	 63.326264	
10.745	 63.627750	
10.7782	 63.883666	
10.8115	 64.354861	
10.8448	 64.738650	
10.878	 65.092906	
10.9113	 65.389109	
10.9446	 65.571289	
